<?xml version="1.0" standalone="yes"?>
<svg xmlns="http://www.w3.org/2000/svg" width="850" height="810">
<path style="fill:#ffffff; stroke:none;" d="M0 0L0 103C44.2723 103 88.7978 101.975 133 100.039C146.899 99.4308 161.13 99.1688 175 99.0038C182.22 98.918 189.844 99.7532 197 98.6991C211.362 96.5834 225.88 91.399 240 87.8735C274.434 79.2759 309.17 69.7546 344 63C344.595 67.1806 347.99 71.1941 350 75C353.798 82.1917 357.036 89.7103 360.688 97C371.028 117.64 380.571 138.758 390.66 159.576C395.802 170.187 404.132 181.415 406.749 193C408.102 198.989 406.809 205.992 406.166 212C405.125 221.719 404.547 231.321 403.289 241C401.111 257.775 401.066 275.12 399.91 292C399.13 303.402 397.462 314.561 396.961 326C396.54 335.594 393.044 346.38 394.188 355.91C394.766 360.729 400.607 364.635 404 367.576C413.365 375.693 422.732 383.822 432 392.05C465.177 421.502 498.103 451.443 531.985 480.076C540.148 486.974 547.895 494.321 556 501.271C559.323 504.12 563.393 508.974 568 509.501C573.744 510.157 581.746 505.267 587 503.203C600.552 497.879 614.313 492.825 628 487.861C677.869 469.776 727.291 450.482 777 431.95C800.414 423.221 824.383 409.244 850 414L850 0L0 0z"/>
<path style="fill:#d8d8d8; stroke:none;" d="M192 99C199.707 110.16 203.772 123.711 209.312 136C216.606 152.184 226.086 168.935 231 186L227 186L231 189L234 187C238.147 195.892 248.196 203.771 254.925 210.986C272.293 229.608 292.622 246.69 308 267C298.041 264.629 287.183 263.982 277 262.715C258.303 260.389 239.707 257.364 221 255C224.922 274.01 228.828 293.191 233.579 312C236.793 324.719 241.428 338.885 242 352C260.12 332.568 275.268 310.113 291.907 289.41C297.781 282.101 302.892 272.713 310.181 266.721C331.894 248.868 355.468 233.158 377.961 216.286C383.835 211.88 389.788 207.557 395.715 203.218C399.447 200.485 403.633 198.026 406 194C387.016 194 367.922 192.385 349 191.089C322.413 189.269 295.627 189.127 269 187.961C256.631 187.419 244.42 186 232 186C257.719 158.078 283.038 129.785 308.91 102C320.495 89.5594 330.885 74.8485 344 64C339.411 62.5928 333.548 64.9267 329 66.1512C319.704 68.6539 310.314 70.8166 301 73.2654C278.503 79.1802 255.576 83.6577 233 89.3742C219.92 92.6862 205.459 98.4134 192 99z"/>
<path style="fill:#f3f3f3; stroke:none;" d="M232 186C244.08 186 255.968 187.434 268 187.961C294.627 189.127 321.413 189.269 348 191.089C367.939 192.455 387.99 194 408 194C394.511 161.558 375.617 131.344 362.075 98.9992C358.581 90.6549 354.228 81.996 350 74C348.606 71.3639 347.083 66.7798 343.851 65.8904C340.311 64.9164 337.06 69.8315 335.025 72.0008C328.551 78.9012 322.339 86.0598 315.946 93.0394C300.176 110.257 284.824 127.915 268.91 145C256.646 158.168 241.938 170.977 232 186z"/>
<path style="fill:#e4f1fa; stroke:none;" d="M168 99C172.724 100.982 178.91 100 184 100C179.276 98.0178 173.09 99 168 99z"/>
<path style="fill:#d6e1ee; stroke:none;" d="M184 99C186.613 100.098 189.165 99.9927 192 100C189.387 98.9023 186.835 99.0073 184 99z"/>
<path style="fill:#d4e8f0; stroke:none;" d="M128 100C132.724 101.982 138.91 101 144 101C139.276 99.0178 133.09 100 128 100z"/>
<path style="fill:#b0d5e7; stroke:none;" d="M144 100C146.613 101.098 149.164 100.993 152 101C140.078 104.524 124.426 102 112 102C116.724 103.982 122.91 103 128 103C125.582 103.722 123.528 103.948 121 104L125 109L120 110L120 112C123.935 111.953 126.657 112.046 128 108C133.219 108 140.648 109.647 144 105C153.688 107.864 165.916 106 176 106L176 108L144 108C146.216 111.166 149.405 110.667 153 110.667C160.337 110.666 167.641 110 175 110L170 113C170 114.797 170.014 114.521 171 116L164 116L164 124C160.259 125.212 159.472 127.194 160 131L162 131C170.659 120.262 181.752 111.108 192 102C186.784 99.811 179.619 101 174 101C163.958 101 154.055 100 144 100z"/>
<path style="fill:#adc9db; stroke:none;" d="M160 100C163.699 101.552 168.017 101 172 101L192 101C188.301 99.448 183.983 100 180 100L160 100z"/>
<path style="fill:#bebebe; stroke:none;" d="M192 100C185.454 109.542 176.372 117.659 168.65 126.282C149.632 147.52 129.732 168.025 111.375 189.826C104.135 198.425 92.3807 206.682 88 217C126.168 209.809 163.9 200.185 202 192.551C211.691 190.609 221.237 187.435 231 186C229.008 174.827 221.953 163.34 217.306 153C209.409 135.433 201.402 117.778 194 100L192 100z"/>
<path style="fill:#e2f4fb; stroke:none;" d="M80 101C82.6127 102.098 85.1645 101.993 88 102C85.3873 100.902 82.8355 101.007 80 101z"/>
<path style="fill:#cde0e8; stroke:none;" d="M88 101C92.7238 102.982 98.9099 102 104 102C99.2762 100.018 93.0901 101 88 101z"/>
<path style="fill:#b3cedb; stroke:none;" d="M56 102C63.6393 105.206 75.7293 103 84 103C106.704 103 129.275 102 152 102C144.361 98.7944 132.271 101 124 101C101.338 101 78.7121 102 56 102z"/>
<path style="fill:#def0fb; stroke:none;" d="M29 102C33.7238 103.982 39.9099 103 45 103C40.2763 101.018 34.0901 102 29 102z"/>
<path style="fill:#cde1ea; stroke:none;" d="M45 102C48.4324 103.44 52.2998 103 56 103C52.5677 101.56 48.7001 102 45 102z"/>
<path style="fill:#c9dae2; stroke:none;" d="M0 103C4.72372 104.982 10.9099 104 16 104C11.2763 102.018 5.0901 103 0 103z"/>
<path style="fill:#b0d5e5; stroke:none;" d="M0 104C0 109.626 -1.39497 117.395 0.564043 122.714C3.55445 130.834 14.019 138.84 19.841 145.116C34.0836 160.468 47.8794 176.333 62.1512 191.668C67.1106 196.997 72.3134 202.144 77.1566 207.575C80.5656 211.397 82.8594 215.547 88 217C92.1136 210.442 98.1996 205.482 103.265 199.665C113.932 187.414 124.871 175.424 135.884 163.486C145.866 152.665 155.572 141.572 165.551 130.718C170.962 124.833 175.816 118.087 182 113C179.048 112.408 177.248 113.937 175.089 116.059C170.714 120.359 164.866 125.631 162 131L160 131L159 130C160.202 127.003 161.151 125.519 164 124L164 116L171 116L170 113L175 111C168.768 108.385 160.355 110.33 153.667 110.333C149.918 110.335 146.708 110.89 144 108L176 108L176 106C165.633 106 154.12 107.409 144 105C139.628 109.127 133.679 108 128 108C126.072 111.498 123.878 111.875 120 112L120 110C121.878 109.824 123.199 109.562 125 109C123.785 106.999 123.001 106.215 121 105C123.418 104.278 125.472 104.052 128 104C124.041 102.339 119.26 103 115 103L90 103C59.9866 103 29.9383 104 0 104z"/>
<path style="fill:#d8d8d8; stroke:none;" d="M0 124L0 301C8.35067 295.017 14.9243 286.54 22.3349 279.47C35.4839 266.924 48.6824 254.333 61.8264 241.729C69.7529 234.128 77.8373 222.339 88 218C82.3257 213.233 78.207 207.363 72.9506 202.181C63.5122 192.876 52.7647 183.838 44.0293 173.911C41.5621 171.107 40.3448 167.609 38.0224 164.749C26.6153 150.703 12.9088 138.473 2 124L0 124z"/>
<path style="fill:#cddbe4; stroke:none;" d="M40 168C42.2589 174.32 49.0967 180.979 55 184C52.179 177.951 45.873 171.276 40 168z"/>
<path style="fill:#dbdbdb; stroke:none;" d="M87 218C99.7891 224.95 116.905 226.967 131 230.235C144.311 233.322 157.079 237.921 170.17 241.907C177.849 244.246 185.417 245.527 193 248.375C200.652 251.249 214.033 250.431 220 256C223.093 249.109 223.247 240.417 224.438 233C226.847 218.006 230.874 202.202 231 187C220.421 187.088 210.331 190.797 200 192.739C176.927 197.076 153.802 202.026 131 207.626C122.409 209.735 113.656 211.641 105 213.49C98.9576 214.781 92.6055 215.287 87 218z"/>
<path style="fill:#cbc7c6; stroke:none;" d="M232 187C228.705 199.736 227.644 213.037 225.562 226C224.031 235.528 221.415 245.366 221 255C249.747 260.34 279.268 261.666 308 267C303.526 258.23 294.036 250.836 287.181 243.835C273.758 230.126 260.201 216.207 247.486 201.83C243.054 196.818 237.858 192.476 234 187L232 187z"/>
<path style="fill:#f1ecce; stroke:none;" d="M406 194C399.83 200.948 390.544 204.473 385 212C392.506 209.42 398.15 202.903 405 199C406.096 205.883 405.058 213.405 403 220L402 216C400.775 218.013 400.355 219.659 400 222L396 222C397.595 225.269 399.567 227.038 400 231C401.759 228.692 401.917 226.908 402 224C403.347 228.558 403 233.27 403 238C402.356 235.894 402.094 234.205 402 232C398.794 236.72 401.472 242.587 400.255 248C398.6 255.357 399.846 262.633 398.696 269.996C397.891 275.149 395.272 279.99 394.583 285.196C393.807 291.066 394 297.917 394 304L391 304C391 315.311 389.798 325.748 388.584 336.91C388.173 340.692 389.698 344.012 389 348L386 348C383.459 341.116 373.647 331.173 367 328C372.324 339.049 383.952 346.191 391 356L393 356C398.174 343.739 395.928 328.039 397.17 315C399.772 287.671 402.102 260.279 404.829 233C406.102 220.277 405.035 206.452 408 194L406 194z"/>
<path style="fill:#f1eccc; stroke:none;" d="M310 268C314.546 270.132 315.376 273.639 318.304 277.388C321.763 281.818 326.165 285.947 330.09 289.975C341.339 301.523 351.49 314.413 363.254 325.436C370.83 332.535 380.758 338.693 386 348L389 348C389.952 343.953 388.61 340.817 388.969 336.91C389.553 330.562 391.096 324.112 391.571 317.83C391.908 313.372 391 308.526 391 304L394 304C394 297.781 394.317 291.205 394.969 285.196C395.539 279.946 398.238 275.187 398.826 269.996C399.388 265.027 398.693 259.98 399.093 255C399.394 251.263 400.853 247.769 400.945 244C401.046 239.87 400.318 236.135 401 232C401.644 234.106 401.906 235.795 402 238C403.769 233.783 403 228.541 403 224C401.991 226.233 401.595 228.604 401 231C399.642 227.522 398.39 224.88 396 222L400 222L401 216L402 220C406.05 215.305 406.482 204.865 405 199C398.395 201.541 393.792 207.011 387.718 210.471C368.593 221.368 350.412 235.201 333 248.881C325.607 254.69 314.854 259.696 310 268z"/>
<path style="fill:#e6e6e6; stroke:none;" d="M123 411C122.721 397.577 118.064 384.159 115.758 371C109.201 333.594 100.6 296.506 94.5617 259C92.3683 245.377 87.5965 231.857 87 218C79.5372 221.226 73.8229 229.064 68.0108 234.657C54.313 247.838 41.1669 261.806 27.1698 274.661C21.9711 279.436 17.0744 284.459 11.9144 289.271C8.19924 292.735 3.30692 296.346 1.02392 301.001C-2.36915 307.919 0 320.394 0 328L0 352C0.000179055 354.784 -0.710112 358.944 1.02778 361.348C3.15676 364.293 8.77332 365.106 12 366.323C20.0541 369.361 27.9594 372.927 36 376.062C54.8168 383.399 73.1965 391.852 92 399.254C102.238 403.284 113.042 406.346 123 411z"/>
<path style="fill:#e7cbca; stroke:none;" d="M87 219C87.5804 232.482 92.0272 245.776 94.385 259C100.333 292.357 106.464 325.819 113.285 359C116.716 375.69 121.611 392.998 123 410C127.263 406.578 129.784 401.597 132.68 397C137.703 389.025 142.659 381.1 147.452 373C162.839 346.995 179.431 321.567 195.586 296C200.694 287.916 205.431 279.562 210.676 271.576C214.316 266.033 219.103 260.742 220 254C207.601 254.135 195.68 247.845 184 244.69C158.965 237.927 134.427 230.402 109 224.88C101.545 223.262 94.6916 219.671 87 219z"/>
<path style="fill:#c6c6c6; stroke:none;" d="M220 256C211.828 270.733 201.88 284.63 193.061 299C182.199 316.7 171.929 335.369 160.168 352.424C151.103 365.571 142.76 379.328 134.551 393C130.887 399.101 125.754 405.034 124 412C132.48 404.899 144.075 400.71 154 395.892C167.74 389.222 181.339 382.23 195 375.4C205.337 370.231 215.606 364.943 226 359.898C231.148 357.4 236.419 354.276 242 353C241.937 345.392 239.611 338.373 238.015 331C234.767 316 230.942 301.027 227.931 286C226.72 279.96 225.032 274.03 223.807 268C222.935 263.707 222.836 259.464 220 256z"/>
<path style="fill:#f5d9d8; stroke:none;" d="M309 266C294.568 286.949 277.438 306.064 262.525 326.679C256.516 334.987 246.444 342.134 243 352C281.125 352 318.879 356.049 357 356.985C365.703 357.199 374.274 358.001 383 358C387.206 358 391.518 358.829 394 355L391 356C388.767 351.388 384.664 348.427 381.258 344.676C373.615 336.261 366.132 327.776 358.245 319.59C345.895 306.772 334.258 293.328 321.849 280.522C317.045 275.564 314.894 269.877 309 266z"/>
<path style="fill:#f8f5e3; stroke:none;" d="M399 288L399 296C400.161 293.23 400.161 290.77 399 288z"/>
<path style="fill:#e6e6e6; stroke:none;" d="M242 352C241.845 370.746 236 389.317 236 408C257.725 402.633 278.818 395.098 300.039 388.324C311.114 384.789 322.15 380.974 333.17 377.481C339.664 375.422 346.623 374.515 353 372.008C362.166 368.404 371.684 365.717 381 362.544C384.705 361.282 389.43 359.474 392 363C393.063 361.031 393.532 359.202 394 357C379.278 360.505 362.876 356.691 348 356.039C339.786 355.68 331.482 356.562 323.285 356.049C296.069 354.347 269.349 352 242 352z"/>
<path style="fill:#d8d8d8; stroke:none;" d="M125 411C149.674 411 174.379 410.118 199 409.039C209.869 408.563 222.531 411.095 233 408L234 411C236.574 406.703 235.665 401.764 236.745 397C239.865 383.247 241.883 367.102 242 353C231.4 354.386 221.312 362.232 211.83 366.833C192.828 376.055 173.855 385.35 155 394.895C145.843 399.531 131.923 403.42 125 411z"/>
<path style="fill:#e0e0e0; stroke:none;" d="M393 359L393 363C392.014 361.522 392 361.797 392 360C377.509 361.871 363.784 368.23 350 372.755C322.196 381.884 294.087 390.271 266 398.619C256.201 401.531 246.822 406.473 237 409C239.671 412.659 247.731 414.822 252.001 416.779C264.273 422.407 276.562 427.853 289 433.09C296.504 436.25 303.576 440.735 311 444.163C334.545 455.035 358.165 465.535 381.83 476.017C391.877 480.467 402.288 487.549 413 490C412.97 478.957 409.722 467.953 408.282 457C404.023 424.612 398.115 392.389 394 360C395.478 360.986 395.203 361 397 361C395.457 359.733 394.952 359.511 393 359z"/>
<path style="fill:#ededed; stroke:none;" d="M394 360C394.591 367.474 396.767 374.626 397.83 382C401.193 405.327 404.364 428.675 407.576 452C408.872 461.403 410.114 470.694 411.996 480C412.623 483.1 412.235 487.783 414.028 490.443C417.36 495.387 427.752 498.454 433 501C447.741 508.151 462.502 515.372 477 523C472.321 509.056 463.861 496.108 457.269 483C445.373 459.344 433.446 435.689 421.602 412C415.756 400.309 409.929 388.623 403.948 377C400.991 371.255 398.639 364.589 394 360z"/>
<path style="fill:#b0d5e5; stroke:none;" d="M396 361C400.574 376.845 411.467 392.182 418.742 407C438.105 446.442 459.9 484.983 478 525C483.178 521.261 488.994 521.902 495 520.549C509.941 517.18 525.699 514.782 541 514.039C546.766 513.758 552.257 512.392 557.996 511.995C559.838 511.868 562.741 511.878 563.503 509.721C564.795 506.066 557.232 501.503 555 499.575C545.271 491.17 535.622 482.591 526 474.05C496.094 447.504 466.175 420.962 436 394.718C427.646 387.453 419.31 380.16 411 372.845C406.291 368.7 401.708 363.658 396 361z"/>
<path style="fill:#d8d8d8; stroke:none;" d="M0 362L0 381C0 384.554 -0.523002 388.646 0.9375 391.985C2.78464 396.208 6.93393 399.667 9.99923 403.004C14.5924 408.003 18.9916 413.174 23.5941 418.17C39.381 435.304 54.7354 452.789 70.3248 470.09C77.786 478.371 88.325 486.794 93 497C101.42 494.995 108.689 497.564 117 497.63C139.307 497.809 161.612 500.233 184 502C182.845 505.716 180.885 507.022 177 507C173.21 511.6 169.324 511.771 164 513.71C156.561 516.418 149.548 518.637 142 520.768C132.691 523.395 124.796 528.017 115.985 531.795C108.519 534.996 100.505 536.556 93.0394 539.63C83.7581 543.45 74.4826 552.023 64 551C61.5781 555.189 57.6002 555.789 53 556C57.5033 565.519 64.3247 574.251 70.1667 583C80.367 598.277 90.6056 613.507 100.456 629C105.188 636.442 109.871 643.803 114.861 651.089C117.356 654.732 119.223 658.618 123 661C134.389 631.487 149.013 602.959 161.716 574C167.587 560.615 173.88 547.404 179.664 534C184.155 523.591 187.933 512.648 194 503C189.885 496.245 184.572 490.357 179.884 484C167.691 467.465 154.899 451.401 142.525 435C136.384 426.859 128.648 419.105 124 410C109.238 408.283 93.5156 399.291 80 393.427C62.5977 385.878 44.7798 379.072 27 372.47C17.8832 369.085 9.4735 364.534 0 362z"/>
<path style="fill:#e8e8e8; stroke:none;" d="M0 392L0 423C0 428.473 -0.769177 434.628 0.390432 440C3.06929 452.41 11.4696 465.41 16.6944 477C28.3987 502.963 41.1805 528.663 52 555C55.6535 551.052 58.1396 546.332 61.2886 542C68.6849 531.825 75.9466 521.635 82.6813 511.001C85.0968 507.187 92.1802 500.349 92.2091 495.7C92.2294 492.442 88.6935 489.263 86.7137 487C81.1443 480.633 75.2665 474.504 69.5147 468.3C52.9173 450.398 36.9744 431.914 20.4198 413.959C13.7029 406.674 7.80128 398.164 0 392z"/>
<path style="fill:#e4e4e4; stroke:none;" d="M194 505C199.751 501.958 208.005 505.043 214 506.584C225.717 509.596 238.123 510.487 250 513.254C262.747 516.223 276.196 516.834 289 519.379C321.192 525.777 353.667 530.994 386 537C376.805 525.547 363.466 517.142 352.421 507.584C325.545 484.327 298.418 461.387 271.424 438.285C260.264 428.734 246.728 419.973 237 409L243 408C233.309 404.054 229.296 421.491 226.309 428C218.552 444.897 210.992 461.953 203.576 479C200.018 487.178 194.469 495.968 194 505z"/>
<path style="fill:#c2c2c2; stroke:none;" d="M125 411C127.612 420.59 137.404 429.118 143.269 437C153.323 450.513 164.102 463.457 174.116 477.001C180.256 485.305 186.064 495.327 194 502C203.275 479.394 214.041 457.428 223.719 435C227.085 427.2 234.803 416.68 233 408C221.799 410.667 209.447 408.538 198 409.039C173.715 410.103 149.337 411 125 411z"/>
<path style="fill:#d8d8d8; stroke:none;" d="M240 411C242.574 416.337 248.278 419.475 252.845 423.039C258.924 427.782 264.708 433.262 270.576 438.285C296.976 460.887 323.682 483.131 349.83 506.041C358.14 513.322 366.676 520.352 375.245 527.329C379.359 530.679 382.656 534.917 388 536C388.094 538.205 388.356 539.894 389 542C392.976 536.258 398.826 536.899 405.05 535.015C420.551 530.325 437.06 529.47 452.961 525.41C459.014 523.864 468.947 519.254 474.527 524.667C476.564 526.644 476.219 529.421 476.059 532C475.707 537.717 475 543.249 475 549C477.586 544.136 476.995 538.28 478.371 533C479.007 530.561 480.556 528.007 479.295 525.518C476.915 520.822 469.423 518.472 465 516.363C453.257 510.763 441.566 504.955 430 499C391.032 478.934 350.629 462.35 311 443.702C296.072 436.678 281.092 429.958 266.17 422.92C257.791 418.968 248.937 413.333 240 411z"/>
<path style="fill:#cbcbcb; stroke:none;" d="M820 417L824 416C823.014 417.479 823 417.203 823 419C824.667 417.452 826.021 416.099 828 415C828.809 424.272 832.097 433.976 834.42 443C838.173 457.583 841.195 472.357 844.654 487C846.144 493.305 848.435 499.526 849 506C852.206 498.361 850 486.271 850 478L850 414C845.03 414 839.951 414.301 835 413.83C829.614 413.318 823.512 411.873 820 417z"/>
<path style="fill:#e2e2e2; stroke:none;" d="M832 413C836.724 414.982 842.91 414 848 414C843.276 412.018 837.09 413 832 413z"/>
<path style="fill:#d4e1cf; stroke:none;" d="M825 415C821.639 426.666 814.857 437.489 809.714 448.424C806.229 455.833 803.241 463.549 799.703 471C795.991 478.816 790.564 487.218 790 496C794.585 491.154 795.35 482.001 802 480C801.46 470.161 807.239 461.478 811.674 453C814.503 447.591 816.284 442.024 819.366 436.715C821.535 432.978 820.903 429.28 824 426L824 432C826.364 431.518 826.518 431.364 827 429C828.813 434.865 831.802 440.987 832.951 447C833.457 449.651 832.836 452.381 833.523 455C835.321 461.847 838.271 464.642 836 472C840.749 476.144 844.243 485.559 844.071 491.961C843.997 494.699 842.385 497.264 842 500L846 500L846 504L845 502C844.317 503.506 844.174 504.315 844 506L850 510C849.348 501.802 846.536 493.965 844.654 486C839.14 462.657 831.488 438.708 828 415L825 415z"/>
<path style="fill:#d0d0d0; stroke:none;" d="M568 510C571.795 512.705 576.61 513.095 581 514.519C591.559 517.943 602.362 520.6 613 523.77C644.928 533.283 677.127 541.945 709 551.656C719.602 554.886 730.373 557.62 741 560.77C745.095 561.984 751.428 565.065 755.736 563.357C759.039 562.048 760.531 556.934 761.92 554C765.656 546.108 768.985 537.935 772.951 530.166C786.132 504.345 798.284 476.983 809.322 450.17C813.982 438.85 822.091 428.329 824 416C814.358 416.658 805.995 420.746 797 424.047C780.613 430.06 764.401 436.585 748 442.564C687.877 464.484 628.634 489.487 568 510z"/>
<path style="fill:#d1e3cb; stroke:none;" d="M823 426C821.167 428.614 821.369 431.049 820.274 433.961C818.289 439.242 815.007 444.75 812.652 450C808.286 459.734 800.697 468.897 802 480C795.737 481.036 793.036 490.512 791 496C790.014 494.521 790 494.797 790 493C787.822 496.281 786.798 500.085 784.985 503.576C778.486 516.09 773.092 529.088 767.41 542.004C764.048 549.644 758.905 556.534 758 565L764 567C766.228 564.931 768.321 566.521 771.018 567.264C775.096 568.387 779.786 568.685 784 569C805.981 570.645 828.133 573.404 850 576L850 524C850 517.494 851.698 508.398 844 506L844 502L845 504C845.683 502.494 845.826 501.685 846 500L842 500C842.584 497.617 844.114 495.334 844.401 492.91C845.111 486.926 841.217 475.014 836 472C838.943 464.978 835.999 461.605 833.878 455C832.937 452.069 833.806 448.991 833.081 446C831.635 440.036 828.182 435.255 828 429C826.649 430.402 825.746 431.176 824 432C823.953 429.747 823.874 428.052 823 426z"/>
<path style="fill:#bfbfbf; stroke:none;" d="M0 441L0 640C4.8257 635.244 7.00247 628.673 10.534 623.001C19.5879 608.459 28.8865 594.027 37.5941 579.286L47.2276 563C48.6676 560.542 50.884 557.902 51.277 555C51.7367 551.605 49.3596 547.965 48 545C44.9398 538.327 41.8957 531.646 38.7801 525C30.4077 507.141 22.2738 489.096 14.4244 471C10.2756 461.436 6.64489 449.05 0 441z"/>
<path style="fill:#d3e2cd; stroke:none;" d="M52 556C56.7663 555.96 62.2148 556.13 64 551C73.7273 552.712 83.6523 544.576 92.0895 540.479C99.3027 536.977 107.564 535.619 114.996 532.575C119.69 530.652 126.329 528.359 129 524L128 523L122 524L122 527C113.06 528.389 105.222 535.387 96 536L96 532C90.2887 532 85.3802 532.062 80 530L80 534C84.3948 534.049 87.2024 534.424 90 538C85.4869 538.672 81.8583 541.336 77.7145 543.135C72.7165 545.305 67.2732 546.686 62 548C63.5169 545.082 64.8926 544.078 68 543C69.8462 535.583 74.3312 529.093 77 522C78.1863 523.186 78.5839 523.528 80 524C80.3148 520.185 80.6417 517.116 84 515C84.0417 511.998 85.6126 509.854 86 507C88.8034 506.229 90.641 504.67 93 503C93.5354 493.606 101.951 499.239 107 499.917C109.862 500.301 114.343 498.482 116 501C119.37 499.797 122.49 499.468 126 499C128.676 502.07 133.304 500.588 137.001 500.324C142.668 499.92 148.3 501.627 154 501L154 503C157.775 502.608 161.221 503.971 165.001 503.949C170.04 503.92 174.951 502.844 180 503C176.683 506.59 172.342 506.922 168 508.86C155.534 514.427 141.963 516.445 130 523C134.365 524.78 137.776 522.539 142 521.292C149.847 518.974 157.272 516.523 165 513.71C170.051 511.871 174.166 512.051 177 507C181.155 507.239 183.272 506.227 184 502C172.069 500.492 159.99 500.765 148 499.946C143.253 499.622 138.771 497.633 134 497.17C128.135 496.6 122.218 497.379 116.343 497.312C109.069 497.228 100.362 493.795 93.2631 496.879C87.5546 499.359 83.3241 509.011 80.189 514C71.3663 528.04 58.8111 540.872 52 556z"/>
<path style="fill:#d1e3cb; stroke:none;" d="M93 503L86 507C86 510.254 83.1578 510.999 84 515C79.8427 515.886 80.0628 520.266 80 524C78.8137 522.814 78.4162 522.472 77 522C73.4589 528.457 69.0505 535.633 68 543C64.5438 543.718 63.0712 544.598 62 548C72.0749 546.095 80.3706 540.499 90 538C87.806 533.815 84.3495 534.015 80 534L80 530C85.046 532.626 90.4462 532 96 532L96 536C105.309 535.725 113.269 529.379 122 527L122 524C128.989 523.835 132.959 521.008 139.289 518.713C143.738 517.1 148.481 516.661 153 515.39C156.823 514.315 160.224 512.12 164 510.869C168.866 509.256 177.299 507.416 180 503C174.573 502.576 169.366 504.111 164 503.857C160.428 503.688 157.565 502.19 154 503L154 501C148.596 501.348 143.351 500.02 138 500.128C133.684 500.215 129.818 501.436 126 499C122.299 499.251 119.402 499.365 116 501C114.388 498.055 110.997 500.25 108 499.917C102.976 499.357 92.482 492.77 93 503z"/>
<path style="fill:#eaeaea; stroke:none;" d="M193 503C174.72 543.207 156.879 583.6 138.988 624C134.532 634.063 129.67 643.987 125.341 654.089C123.633 658.076 120.693 665.873 128 663C131.367 665.966 139.529 665.835 144 666.039C151.079 666.363 158.015 668.239 165 669.272C172.66 670.403 179.755 673.181 187.17 674.726C190.065 675.329 193.082 674.896 196 675.478C208.972 678.068 221.849 681.964 235 683.791C238.635 684.296 242.366 683.616 245.985 684.224C253.357 685.462 261.356 691.436 269 690C254.01 645.618 234.21 602.423 216.648 559C211.517 546.313 206.423 533.628 201.198 521C198.676 514.902 197.504 508.043 193 503z"/>
<path style="fill:#dadada; stroke:none;" d="M195 503C196.756 516.411 204.954 529.445 209.755 542C222.976 576.581 237.902 610.443 251.194 645C255.317 655.717 259.975 666.279 264.037 677C265.64 681.232 266.231 687.611 271 689L270 686C280.126 680.622 284.913 667.793 292.155 659.464C302.009 648.131 310.425 635.864 319.665 624C329.976 610.761 341.035 597.724 350.7 584.025C357.582 574.27 364.71 565.136 372.255 555.87C375.683 551.658 378.107 546.622 383 544C382.914 541.584 384.531 539.544 385 537C374.82 533.963 363.471 533.438 353 531.537C328.996 527.178 304.993 522.339 281 518.561C260.297 515.301 239.678 510.875 219 507.406C210.988 506.062 203.176 503.357 195 503z"/>
<path style="fill:#c5c5c5; stroke:none;" d="M564 509C558.71 514.402 545.327 513.47 538 514.17C522.848 515.617 507.961 517.94 493 520.755C488.337 521.633 483.547 521.643 479 523C481.419 530.129 487.88 536.224 492.614 542C502.173 553.662 511.657 565.372 521.25 577C526.186 582.983 530.909 591.48 538 595C542.798 574.271 552.218 554.219 558.836 534C561.274 526.552 566.966 516.823 566 509L564 509z"/>
<path style="fill:#d8d8d8; stroke:none;" d="M567 510C556.836 536.349 549.251 563.676 538.985 589.985C536.455 596.467 529.851 598.909 528 606C531.113 603.578 533.928 598.125 538.043 597.582C542.75 596.96 547.967 600.369 552 602.276C556.152 604.24 560.725 605.882 565.015 607.572C588.027 616.635 610.909 625.964 634 634.83C641.317 637.64 648.646 640.151 655.83 643.326C658.93 644.696 663.1 645.992 665.411 648.568C668.587 652.108 668.679 658.544 669.282 663C670.483 671.863 671.977 681.26 673.885 690C675.188 695.968 675.174 702.12 676.456 708C678.214 716.061 680.722 723.995 682.661 732C683.34 734.806 685.83 743.373 683.088 745.578C681.274 747.036 677.96 745.517 676 745.119C669.576 743.815 662.527 740.979 656 742C659.792 744.286 664.687 745.011 669 745.989C674.071 747.139 679.775 749.219 685 749.161C695.564 749.045 706.53 745.642 717 744.282C751.101 739.85 785.055 734.539 819 729.7C829.401 728.217 839.483 725.83 850 725C849.901 716.684 844.041 715.738 837 713.177C826.915 709.508 816.989 705.328 807 701.4C773.398 688.185 739.373 675.974 706 662.228C697.782 658.843 689.299 656.005 681.001 652.807C676.489 651.068 671.355 649.52 668 646L666 647C662.344 638.308 654.94 630.48 649.235 623C639.563 610.322 630.266 597.251 620.809 584.421C607.789 566.755 595.189 548.697 582.154 531C577.089 524.123 572.86 516.214 567 510z"/>
<path style="fill:#eaeaea; stroke:none;" d="M568 511C575.75 525.259 586.807 538.032 596.487 551C613.194 573.383 629.451 596.185 645.59 619.001C652.244 628.407 659.948 637.194 666 647C673.514 643.102 679.622 635.832 686 630.282C700.97 617.256 715.227 603.415 729.999 590.166C735.074 585.615 739.855 580.757 745 576.282C748.984 572.816 753.589 569.762 756 565C727.827 554.713 697.765 548.54 669 539.964C648.382 533.816 627.638 528.025 607 521.964C594.072 518.168 581.204 513.725 568 511z"/>
<path style="fill:#d1e3cb; stroke:none;" d="M454 688C457.374 685.936 457.915 682.7 458.985 679C460.329 674.355 459.718 669.748 460.17 665C460.725 659.17 462.245 652.745 461 647C464.929 644.453 463.791 640.248 464.09 636C464.397 631.616 465.766 627.401 465.961 623C466.355 614.073 465.128 604.882 466.129 596C466.552 592.247 468.202 588.758 468.71 585C470.184 574.085 470.921 562.963 472.167 552C472.905 545.509 475.495 539.599 476.074 533C476.314 530.271 477.245 526.954 475.243 524.654C472.241 521.204 464.102 521.702 460.09 522.708C452.726 524.556 445.58 527.625 438 528.796C428.509 530.261 416.474 529.747 407.718 533.586C403.492 535.44 390.622 535.565 390.322 541.109C390.063 545.885 393.071 549.883 394.524 554.166C398.772 566.684 405.494 578.214 411.335 590.039C413.946 595.326 415.039 601.303 417.322 606.714C424.112 622.809 431.855 638.717 438.869 654.576C443.651 665.39 451.391 676.455 454 688z"/>
<path style="fill:#d9d9d9; stroke:none;" d="M480 528C476.961 534.28 476.545 542.092 476 549C475.438 547.199 475.176 545.878 475 544L473 544C471.954 557.248 470.488 570.84 468.71 584C468.202 587.758 466.552 591.247 466.129 595C465.32 602.178 466.003 609.779 466 617C465.998 623.179 464.517 628.9 464.09 635C463.759 639.71 464.58 643.495 461 647C462.756 662.723 457.237 677.646 456 693C464.622 690.185 469.941 678.22 475.718 671.745C491.062 654.548 505.201 636 519.6 618C525.249 610.939 528.66 601.228 536 596C533.564 588.973 526.79 582.695 522.08 577C513.031 566.058 504.367 554.791 495.131 544C490.512 538.603 486.494 531.164 480 528z"/>
<path style="fill:#dfdfdf; stroke:none;" d="M386 536C384.525 538.662 383.148 540.968 383 544C377.78 545.684 375.561 550.928 372.255 555C364.506 564.542 357.337 574.176 350.026 584.025C331.141 609.464 311.903 635.362 291.438 659.464C284.029 668.189 279.124 678.723 270 686C270 687.797 270.014 687.521 271 689C269.203 689 269.479 689.014 268 690L268 695C274.26 690.164 280.384 691 288 691C299.741 691 311.313 691.11 323 691.911C333.627 692.638 344.36 691.573 355 692.039C388.976 693.527 422.929 694 457 694L457 689C453.766 685.796 452.483 681.983 450.421 677.996C445.087 667.688 441.469 656.476 436.446 646.17C425.396 623.496 416.284 599.959 405.569 577.17C401.679 568.898 397.609 560.913 394.201 552.424C392.04 547.04 388.825 541.783 388 536L386 536z"/>
<path style="fill:#cbcbcb; stroke:none;" d="M51 556C38.5985 574.745 28.0901 594.747 16.2894 613.83C11.0621 622.283 3.14366 631.235 0.498457 641C-0.683104 645.362 0 650.518 0 655L0 682C27.8728 678.477 55.2879 673.015 83 668.562C95.9963 666.473 108.831 663.048 122 662C117.489 651.907 109.606 643.449 103.922 634C87.9599 607.467 70.3326 581.693 53 556L51 556z"/>
<path style="fill:#d8d8d8; stroke:none;" d="M754 564C765.168 574.424 773.017 590.06 781.38 602.834C795.467 624.353 809.848 645.697 824.255 667C829.157 674.249 834.306 681.539 838.866 689C841.914 693.987 845.019 700.805 850 704L850 576C838.792 574.132 826.848 574.712 816 572C813.176 571.294 809.824 572.706 807 572C800.394 570.348 792.179 569 785 569C781.446 569 776.594 568.898 773 568C769.396 567.099 766.317 565 764 565L764 567C761.605 565.955 759.397 565.708 759 563L754 564z"/>
<path style="fill:#c2c2c2; stroke:none;" d="M668 648C708.882 663.02 749.406 679.236 790 695.062C809.508 702.667 829.584 713.274 850 718C850 713.974 850.707 709.166 849.501 705.286C848.011 700.493 843.956 696.177 841.286 692C834.842 681.923 828.368 671.743 821.421 662C810.061 646.068 799.79 629.32 788.997 613C778.647 597.35 767.589 582.141 758 566C748.578 569.989 741.306 579.033 733.911 585.87C719.703 599.002 705.018 611.625 691 624.961C683.495 632.101 672.463 638.429 668 648z"/>
<path style="fill:#f5d9d8; stroke:none;" d="M458 695C463.826 692.767 469.938 692.18 476 690.765C487.334 688.118 498.63 685.502 510 682.986C544.028 675.457 578.141 667.789 612 659.475C624.257 656.465 636.744 654.484 649 651.475C654.325 650.167 660.264 649.893 665 647C634.248 633.584 602.674 620.455 571 609.343C565.009 607.241 558.727 604.994 552.999 602.276C548.753 600.262 542.957 596.592 538.043 596.973C534.913 597.216 533.053 600.23 531.255 602.439C526.521 608.253 521.883 614.146 517.2 620C504.176 636.279 491.262 652.763 477.809 668.69C473.065 674.306 468.511 680.046 463.965 685.83C461.463 689.012 459.094 690.999 458 695z"/>
<path style="fill:#e7cbca; stroke:none;" d="M460 693C461.461 697.998 467.621 697.619 472 698.722C483.014 701.497 495.477 702.812 506 706.713C521.456 712.443 538.979 714.371 555 718.37C575.599 723.512 596.292 728.459 617 733.301C625.023 735.177 632.869 738.008 641 739.407C651.764 741.26 662.23 742.835 673 744.759C675.474 745.201 681.133 747.857 683.31 746.093C684.925 744.783 684.182 741.75 684.037 740C683.514 733.68 681.212 728.134 680.079 722C679.084 716.618 677.07 711.351 676.194 706C674.415 695.124 673.848 683.867 671.681 673C670.043 664.788 667.59 656.364 667 648C658.55 648.368 650.226 651.179 642 652.986C627.643 656.141 613.285 659.022 599 662.525C572.149 669.11 544.906 674.138 518 680.503C507.37 683.018 496.601 685.224 486 687.873C477.429 690.016 468.902 692.816 460 693z"/>
<path style="fill:#d9d9d9; stroke:none;" d="M0 682L0 704C0 707.801 -0.666603 712.404 0.938272 715.961C3.86338 722.442 12.0392 728.039 17 733C28.9963 744.996 41.0672 756.924 52.9853 768.996C58.8745 774.961 64.8519 780.844 70.7145 786.834C75.0861 791.301 78.4664 795.56 85 796L84 792L80 792C80.0197 784.85 82.4836 781.19 84.9877 774.831C87.8557 767.548 90.6092 760.258 93.5957 753C98.3111 741.54 99.2999 728.795 103.34 717.039C104.351 714.1 106.668 711.928 107.61 708.961C109.649 702.533 110.339 695.576 112.88 689.286C115.998 681.564 119.825 674.493 120 666C121.85 666.202 123.15 666.202 125 666C118.613 658.338 101.505 665.019 92.9105 666.755C62.1315 672.974 30.8378 676.275 0 682z"/>
<path style="fill:#f1eccc; stroke:none;" d="M127 663C124.627 669.914 133.239 678.614 137.225 683.996C148.866 699.718 160.062 716.152 170 733C181.465 724.285 199.185 717.949 213 714C213 709.905 222.585 708.295 226 706.667C227.457 705.972 228.43 704.626 230 704.167C233.303 703.201 236.61 704.032 240 702.667C248.758 699.139 257.584 693.734 267 692C264.204 688.174 260.325 688.568 256 687.667C252.632 686.965 250.315 684.374 247 684C242.789 683.526 238.118 684.868 234 683.667C224.284 680.833 213.869 680.438 204 677.833C201.595 677.199 199.484 675.851 197 675.333C193.765 674.659 190.131 675.749 187 674.833C185.404 674.367 184.532 672.899 183 672.333C181.129 671.642 178.943 672.125 177 671.667C170.009 670.016 163.03 668.798 156 667.333C148.6 665.792 141.238 665.976 134 664.167C131.223 663.472 129.328 664.746 127 663z"/>
<path style="fill:#d1e3cb; stroke:none;" d="M120 666C119.632 674.548 115.243 681.379 112.54 689.286C110.373 695.623 109.716 702.771 107.288 708.961C106.282 711.524 104.261 713.479 103.34 716.089C99.1976 727.836 98.3217 740.514 93.5957 752C90.5949 759.293 87.8181 766.57 84.9877 773.914C82.6931 779.868 80.0563 783.285 80 790C85.1226 788.297 88.437 784.381 94 784C96.8933 778.13 103.841 776.089 108.91 772.259C117.123 766.054 127.536 763.29 135.871 757.046C138.607 754.997 140.395 752.006 143.054 749.847C147.908 745.906 153.544 742.908 158.911 739.792C161.851 738.086 163.55 736.355 167 736C170.65 728.026 163.582 722.464 159.731 715.964C149.574 698.824 134.919 683.797 126 666L120 666z"/>
<path style="fill:#c5c5c5; stroke:none;" d="M206 810L244 810C244.607 796.074 249.434 781.573 252.501 768C258.272 742.457 264.015 716.705 269 691C258.558 693.417 248.874 698.525 239 702.548C223.987 708.664 208.988 714.805 194 720.989C188.335 723.327 182.562 725.51 177.005 728.096C174.767 729.137 171.887 730.313 171.647 733.13C171.092 739.611 178.263 749.213 180.92 755C189.116 772.855 200.562 791.117 206 810z"/>
<path style="fill:#ededed; stroke:none;" d="M271 691C273.232 699.605 280.849 706.65 285.62 714C299.338 735.128 315.068 754.991 328.996 776C334.066 783.647 339.606 790.908 344.867 798.424C347.148 801.685 349.239 806.721 352.609 808.972C355.133 810.658 359.125 810 362 810L382 810L408 810C410.963 810 415.768 810.87 418.298 808.972C420.789 807.104 421.308 802.773 422.194 800C424.657 792.299 427.507 784.725 429.883 777C438.552 748.821 449.862 721.259 458 693C451.183 694.623 443.97 694 437 694C422.947 694 408.989 693.357 395 693.015C353.658 692.002 312.38 691 271 691z"/>
<path style="fill:#e5cbcc; stroke:none;" d="M270 692C270.16 699.762 272.073 707.304 272.83 715C275.948 746.693 282.475 778.275 285 810C287.746 803.456 285.38 795.377 284.951 788.576C284.541 782.085 285.999 775.522 286 769C284.787 771.89 285.002 774.874 285 778C280.452 773.147 280.013 763.448 280 757C279.989 751.313 277.993 745.59 278.219 740.039C278.477 733.714 280 727.56 280 721C278.622 723.588 278.239 726.08 278 729L277 725C276.315 726.248 276.251 726.548 276 728C274.927 722.603 275.988 715.471 277 710C280.805 712.539 282.534 714.294 282 719C286.29 723.544 285 730.103 285 736C286.982 731.276 286 725.09 286 720C293.986 728.35 301.014 738.121 307 748C308.421 742.584 301.923 736.156 298.883 732C289.437 719.085 281.413 703.225 270 692z"/>
<path style="fill:#e8e8e8; stroke:none;" d="M269 694C265.632 701.827 264.432 710.708 262.576 719C259.082 734.617 255.948 750.328 252.715 766C249.763 780.304 244.304 795.351 244 810L285 810C284.601 800.725 282.484 791.232 281.282 782C278.979 764.324 276.788 746.649 274.285 729C272.767 718.29 274.131 703.651 269 694z"/>
<path style="fill:#d8d8d8; stroke:none;" d="M457 695C448.939 714.754 443.373 735.741 436.645 756C430.72 773.839 423.239 791.675 419 810L548 810C546.134 804.617 541.641 800.394 538.094 796C532.193 788.69 526.229 781.448 520.498 774C508.044 757.812 494.941 742.132 482.424 726C474.528 715.825 466.741 703.461 457 695z"/>
<path style="fill:#c3c3c3; stroke:none;" d="M458 695C462.462 704.81 471.93 713.54 478.576 722.004C493.536 741.056 508.774 759.875 523.664 778.985C529.18 786.064 534.871 793.035 540.551 799.985C542.939 802.908 545.815 807.83 549.376 809.4C555.247 811.991 565.633 810 572 810L625 810L642 810C644.315 809.995 647.348 810.402 649.351 808.972C653.459 806.04 656.577 797.382 659.148 792.999C664.175 784.428 668.996 775.324 674.459 767.054C678.274 761.278 683.588 756.01 685 749C675.169 747.73 665.637 744.722 656 742.498C637.945 738.333 620.004 733.918 602 729.475C554.045 717.64 506.076 706.122 458 695z"/>
<path style="fill:#f5f0dd; stroke:none;" d="M212 712C218.196 713.827 228.081 707.283 234 705C227.612 702.39 218.074 709.763 212 712z"/>
<path style="fill:#e7cbca; stroke:none;" d="M277 710C275.654 715.656 275.284 722.181 275 728C275.685 726.752 275.749 726.452 276 725L277 729C278.378 726.412 278.761 723.92 279 721C281.075 728.019 278.256 733.254 278.093 740.039C277.93 746.857 279.833 754.046 280.015 761C280.143 765.912 280.836 775.059 285 778L285 769C286.847 775.263 284.738 781.575 284.785 788C284.838 795.278 286 802.609 286 810L352 810C348.988 800.565 340.914 791.851 335.036 784C326.033 771.975 316.428 759.052 309 746C307.805 746.598 308.023 746.466 307 748C303.017 738.428 294.32 726.128 286 720L286 736C284.383 730.529 287.002 722.608 282 719C282.903 714.713 281.74 713.207 279 710L277 710z"/>
<path style="fill:#cbcbcb; stroke:none;" d="M0 716L0 810L41 810C46.6701 810 54.3043 811.328 59.7145 809.486C64.514 807.852 68.4126 802.55 71.9807 799.17C73.4837 797.746 75.7778 796.153 76.0795 793.925C76.4243 791.379 73.9513 789.363 72.4051 787.715C67.89 782.903 63.0223 778.443 58.4205 773.714C46.3982 761.361 34.1917 749.192 22 737C14.8948 729.895 8.02182 722.074 0 716z"/>
<path style="fill:#e5e5e5; stroke:none;" d="M686 749C691.069 764.447 699.525 779.227 706.309 794C708.232 798.189 710.989 807.326 715.39 809.397C720.625 811.859 730.278 810 736 810C744.145 810 756.363 812.268 763.961 809.146C770.45 806.479 775.815 799.273 781.015 794.728C794.113 783.279 807.027 771.644 820.004 760.049C826.693 754.073 833.645 748.476 840.275 742.424C843.199 739.755 847.384 737.21 849.146 733.536C850.377 730.969 849.998 727.764 850 725C825.86 726.036 801.844 732.264 778 735.7C761.372 738.096 744.697 740.766 728 742.844C714.075 744.578 699.644 745.742 686 749z"/>
<path style="fill:#e7e7e7; stroke:none;" d="M169 732C157.588 748.072 148.316 765.647 137.401 782C131.926 790.204 122.893 800.218 121 810L206 810C204.691 802.656 200.463 795.706 197.298 789C191.954 777.678 186.615 766.368 181.374 755C177.986 747.651 175.021 737.499 169 732z"/>
<path style="fill:#d8d8d8; stroke:none;" d="M848 734C840.724 743.92 829.137 751.045 820.004 759.155C801.414 775.662 783.589 793.711 764 809C771.399 812.105 782.993 810 791 810L850 810L850 734L848 734M94 784C88.3145 784.172 83.0806 787.159 80 792L84 792L85 796L80 796C83.1069 799.918 85.607 805.83 89.76 808.682C92.5977 810.631 96.7434 810 100 810L121 810C122.679 804.741 126.265 800.69 129.077 796C137.569 781.838 146.811 768.152 155.4 754C159.188 747.758 163.95 742.101 166 735C158.211 737.846 148.482 744.435 142.129 749.847C139.517 752.072 137.763 755.035 134.946 757.046C127.163 762.602 117.336 765.186 109.83 770.823C104.695 774.679 95.8989 777.6 94 784z"/>
<path style="fill:#b0d5e5; stroke:none;" d="M685 750C681.867 756.181 677.565 761.307 673.861 767.054C670.935 771.596 669.09 776.658 666.174 781.17C660.174 790.45 654.033 798.569 654 810L714 810C707.988 789.131 692.315 771.091 687 750L685 750z"/>
<path style="fill:#f1ecce; stroke:none;" d="M61 810L90 810C87.3028 804.205 83.0228 798.946 79 794C72.17 796.892 64.6865 803.562 61 810z"/>
<path style="fill:#c1d2df; stroke:none;" d="M654 800C652.28 803.23 650.966 806.468 650 810L654 810C654.027 806.694 654.762 803.171 654 800z"/>
</svg>
